<?xml version="1.0" encoding="UTF-8" standalone="no"?>
<!DOCTYPE svg PUBLIC "-//W3C//DTD SVG 1.1//EN" "http://www.w3.org/Graphics/SVG/1.1/DTD/svg11.dtd">
<svg width="100%" height="100%" viewBox="0 0 596 842" version="1.1" xmlns="http://www.w3.org/2000/svg" xmlns:xlink="http://www.w3.org/1999/xlink" xml:space="preserve" xmlns:serif="http://www.serif.com/" style="fill-rule:evenodd;clip-rule:evenodd;stroke-linejoin:round;stroke-miterlimit:2;">
    <g id="path1" transform="matrix(2.83956,2.5196,-2.07717,2.34095,203.994,-138.329)">
        <path d="M112.819,136.474C115.939,139.073 113.035,138.676 112.968,138.813C107.705,149.597 100.769,155.952 94.435,145.506C91.524,140.706 88.215,128.254 98.447,125.277C100.392,124.711 101.481,126.32 101.946,126.369C102.378,126.414 101.374,125.446 90.831,110.354C79.842,97.186 84.115,92.943 91.483,91.532C98.037,90.277 86.495,93.091 87.037,97.919C87.267,99.961 90.069,105.408 91.001,106.896C93.526,110.931 100.241,119.045 105.401,125.464C109.111,130.077 111.647,135.498 112.819,136.474Z" style="fill:rgb(229,111,20);fill-rule:nonzero;"/>
    </g>
    <g id="path11" serif:id="path1" transform="matrix(1.4283,2.44851,-2.44851,1.4283,395.062,42.1993)">
        <path d="M102.092,115.464C100.607,115.039 98.082,113.208 97.209,111.94C96.825,111.381 96.255,110.147 96.029,109.64C95.281,107.968 96.777,105.681 98.747,105.654C100.564,105.629 101.95,106.674 103.518,109.252C104.338,110.6 104.487,111.098 104.587,112.832C104.71,114.946 104.575,115.271 103.452,115.564C103.161,115.64 102.549,115.595 102.092,115.464ZM102.895,113.749C103.585,111.949 102.051,108.468 99.965,107.101C99.306,106.669 99.265,106.676 98.767,107.29L98.252,107.927L99,108.456C100.794,109.726 101.732,110.901 101.732,111.874C101.732,112.497 101.575,112.908 101.269,113.081C100.835,113.327 100.84,113.369 101.335,113.747C102.025,114.273 102.693,114.274 102.895,113.749L102.895,113.749ZM100.457,111.354C100.359,111.051 99.325,110.137 99.166,110.296C98.982,110.48 99.52,111.586 99.733,111.788C100.016,112.055 100.632,111.894 100.457,111.354ZM105.302,99.25C104.612,99.266 104.05,98.381 104.365,97.425C104.62,96.653 106.686,88.967 106.915,86.012C107.056,84.196 109.212,83.758 109.821,83.758C110.894,83.758 109.434,84.236 109.29,85.144C109.217,85.609 107.894,93.477 107.681,95.19C107.184,99.184 105.302,99.25 105.302,99.25Z" style="fill:rgb(255,130,0);fill-rule:nonzero;"/>
    </g>
    <g id="path12" serif:id="path1" transform="matrix(1.4283,2.44851,-2.44851,1.4283,395.062,0.998294)">
        <path d="M102.092,115.464C100.607,115.039 98.082,113.208 97.209,111.94C96.825,111.381 96.255,110.147 96.029,109.64C95.281,107.968 96.777,105.681 98.747,105.654C100.564,105.629 101.95,106.674 103.518,109.252C104.338,110.6 104.487,111.098 104.587,112.832C104.71,114.946 104.575,115.271 103.452,115.564C103.161,115.64 102.549,115.595 102.092,115.464ZM102.895,113.749C103.585,111.949 102.051,108.468 99.965,107.101C99.306,106.669 99.265,106.676 98.767,107.29L98.252,107.927L99,108.456C100.794,109.726 101.732,110.901 101.732,111.874C101.732,112.497 101.575,112.908 101.269,113.081C100.835,113.327 100.84,113.369 101.335,113.747C102.025,114.273 102.693,114.274 102.895,113.749L102.895,113.749ZM100.457,111.354C100.359,111.051 99.325,110.137 99.166,110.296C98.982,110.48 99.52,111.586 99.733,111.788C100.016,112.055 100.632,111.894 100.457,111.354ZM105.302,99.25C104.612,99.266 104.05,98.381 104.365,97.425C104.62,96.653 106.686,88.967 106.915,86.012C107.056,84.196 109.212,83.758 109.821,83.758C110.894,83.758 109.434,84.236 109.29,85.144C109.217,85.609 107.894,93.477 107.681,95.19C107.184,99.184 105.302,99.25 105.302,99.25Z" style="fill:rgb(255,130,0);fill-rule:nonzero;"/>
    </g>
    <g id="path13" serif:id="path1" transform="matrix(1.4283,2.44851,-2.44851,1.4283,395.062,-42.8347)">
        <path d="M102.092,115.464C100.607,115.039 98.082,113.208 97.209,111.94C96.825,111.381 96.255,110.147 96.029,109.64C95.281,107.968 96.777,105.681 98.747,105.654C100.564,105.629 101.95,106.674 103.518,109.252C104.338,110.6 104.487,111.098 104.587,112.832C104.71,114.946 104.575,115.271 103.452,115.564C103.161,115.64 102.549,115.595 102.092,115.464ZM102.895,113.749C103.585,111.949 102.051,108.468 99.965,107.101C99.306,106.669 99.265,106.676 98.767,107.29L98.252,107.927L99,108.456C100.794,109.726 101.732,110.901 101.732,111.874C101.732,112.497 101.575,112.908 101.269,113.081C100.835,113.327 100.84,113.369 101.335,113.747C102.025,114.273 102.693,114.274 102.895,113.749L102.895,113.749ZM100.457,111.354C100.359,111.051 99.325,110.137 99.166,110.296C98.982,110.48 99.52,111.586 99.733,111.788C100.016,112.055 100.632,111.894 100.457,111.354ZM105.302,99.25C104.612,99.266 104.05,98.381 104.365,97.425C104.62,96.653 106.686,88.967 106.915,86.012C107.056,84.196 109.212,83.758 109.821,83.758C110.894,83.758 109.434,84.236 109.29,85.144C109.217,85.609 107.894,93.477 107.681,95.19C107.184,99.184 105.302,99.25 105.302,99.25Z" style="fill:rgb(255,130,0);fill-rule:nonzero;"/>
    </g>
</svg>
