<?xml version="1.0" encoding="UTF-8"?>
<svg xmlns="http://www.w3.org/2000/svg" xmlns:xlink="http://www.w3.org/1999/xlink" width="48px" height="48px" viewBox="0 0 48 48" version="1.1">
<path d="M14.5 5.28l0 24.17c-1.27-0.56-2.72-0.91-4.28-0.91c-4.97 0-8.97 3.2-8.97 7.17c0 3.95 4 7.19 8.97 7.19c4.95 0 8.97-3.23 8.97-7.19l0-19.91l23.42 0l0 13.64c-1.28-0.56-2.73-0.91-4.3-0.91c-4.97 0-8.97 3.2-8.97 7.17c0 3.95 4 7.19 8.97 7.19c4.97 0 8.97-3.23 8.97-7.19l0-30.44l-32.78 0l0 0ZM42.61 13.47l-23.42 0l0-3.5l23.42 0l0 3.5l0 0Z" fill="rgb(255,255,255)"/>
</svg>