<?xml version="1.0" encoding="UTF-8" standalone="no"?>
<!-- Created with Inkscape (http://www.inkscape.org/) -->

<svg
   width="50"
   height="50"
   viewBox="0 0 13.22917 13.229167"
   version="1.1"
   id="svg1"
   inkscape:version="1.2.2 (b0a8486541, 2022-12-01)"
   sodipodi:docname="none50x50.svg"
   xmlns:inkscape="http://www.inkscape.org/namespaces/inkscape"
   xmlns:sodipodi="http://sodipodi.sourceforge.net/DTD/sodipodi-0.dtd"
   xmlns="http://www.w3.org/2000/svg"
   xmlns:svg="http://www.w3.org/2000/svg"
   xmlns:serif="http://www.serif.com/">
  <sodipodi:namedview
     id="namedview1"
     pagecolor="#ffffff"
     bordercolor="#000000"
     borderopacity="0.25"
     inkscape:showpageshadow="2"
     inkscape:pageopacity="0.0"
     inkscape:pagecheckerboard="0"
     inkscape:deskcolor="#d1d1d1"
     inkscape:document-units="mm"
     showgrid="false"
     inkscape:zoom="10.946802"
     inkscape:cx="24.801764"
     inkscape:cy="25.44122"
     inkscape:window-width="1883"
     inkscape:window-height="1055"
     inkscape:window-maximized="1"
     inkscape:current-layer="layer1"
     inkscape:window-x="37"
     inkscape:window-y="0" />
  <defs
     id="defs1" />
  <g
     inkscape:label="Layer 1"
     inkscape:groupmode="layer"
     id="layer1">
    <g
       id="path11"
       serif:id="path1"
       transform="matrix(0.19292993,0.24392017,-0.33073644,0.14228702,19.207894,-29.190494)"
       style="clip-rule:evenodd;fill-rule:evenodd;stroke-width:3.79526;stroke-linejoin:round;stroke-miterlimit:2">
      <path
         d="m 102.092,115.464 c -1.485,-0.425 -4.01,-2.256 -4.883,-3.524 -0.384,-0.559 -0.954,-1.793 -1.18,-2.3 -0.748,-1.672 0.748,-3.959 2.718,-3.986 1.817,-0.025 3.203,1.02 4.771,3.598 0.82,1.348 0.969,1.846 1.069,3.58 0.123,2.114 -0.012,2.439 -1.135,2.732 -0.291,0.076 -0.903,0.031 -1.36,-0.1 z m 0.803,-1.715 c 0.69,-1.8 -0.844,-5.281 -2.93,-6.648 -0.659,-0.432 -0.7,-0.425 -1.198,0.189 l -0.515,0.637 0.748,0.529 c 1.794,1.27 2.732,2.445 2.732,3.418 0,0.623 -0.157,1.034 -0.463,1.207 -0.434,0.246 -0.429,0.288 0.066,0.666 0.69,0.526 1.358,0.527 1.56,0.002 z m -2.438,-2.395 c -0.098,-0.303 -1.132,-1.217 -1.291,-1.058 -0.184,0.184 0.354,1.29 0.567,1.492 0.283,0.267 0.899,0.106 0.724,-0.434 z m 4.845,-12.104 c -0.69,0.016 -1.252,-0.869 -0.937,-1.825 0.255,-0.772 2.321,-8.458 2.55,-11.413 0.141,-1.816 2.297,-2.254 2.906,-2.254 1.073,0 -0.387,0.478 -0.531,1.386 -0.073,0.465 -1.396,8.333 -1.609,10.046 -0.497,3.994 -2.379,4.06 -2.379,4.06 z"
         style="fill:#ff6600;fill-rule:nonzero;stroke-width:3.79526"
         id="path2" />
    </g>
    <g
       id="path12"
       serif:id="path1"
       transform="matrix(0.19292993,0.24392017,-0.33073644,0.14228702,19.207894,-33.294933)"
       style="clip-rule:evenodd;fill-rule:evenodd;stroke-width:3.79526;stroke-linejoin:round;stroke-miterlimit:2">
      <path
         d="m 102.092,115.464 c -1.485,-0.425 -4.01,-2.256 -4.883,-3.524 -0.384,-0.559 -0.954,-1.793 -1.18,-2.3 -0.748,-1.672 0.748,-3.959 2.718,-3.986 1.817,-0.025 3.203,1.02 4.771,3.598 0.82,1.348 0.969,1.846 1.069,3.58 0.123,2.114 -0.012,2.439 -1.135,2.732 -0.291,0.076 -0.903,0.031 -1.36,-0.1 z m 0.803,-1.715 c 0.69,-1.8 -0.844,-5.281 -2.93,-6.648 -0.659,-0.432 -0.7,-0.425 -1.198,0.189 l -0.515,0.637 0.748,0.529 c 1.794,1.27 2.732,2.445 2.732,3.418 0,0.623 -0.157,1.034 -0.463,1.207 -0.434,0.246 -0.429,0.288 0.066,0.666 0.69,0.526 1.358,0.527 1.56,0.002 z m -2.438,-2.395 c -0.098,-0.303 -1.132,-1.217 -1.291,-1.058 -0.184,0.184 0.354,1.29 0.567,1.492 0.283,0.267 0.899,0.106 0.724,-0.434 z m 4.845,-12.104 c -0.69,0.016 -1.252,-0.869 -0.937,-1.825 0.255,-0.772 2.321,-8.458 2.55,-11.413 0.141,-1.816 2.297,-2.254 2.906,-2.254 1.073,0 -0.387,0.478 -0.531,1.386 -0.073,0.465 -1.396,8.333 -1.609,10.046 -0.497,3.994 -2.379,4.06 -2.379,4.06 z"
         style="fill:#ff6600;fill-rule:nonzero;stroke-width:3.79526"
         id="path3" />
    </g>
    <g
       id="path13"
       serif:id="path1"
       transform="matrix(0.19292993,0.24392017,-0.33073644,0.14228702,19.207894,-37.661568)"
       style="clip-rule:evenodd;fill-rule:evenodd;stroke-width:3.79526;stroke-linejoin:round;stroke-miterlimit:2">
      <path
         d="m 102.092,115.464 c -1.485,-0.425 -4.01,-2.256 -4.883,-3.524 -0.384,-0.559 -0.954,-1.793 -1.18,-2.3 -0.748,-1.672 0.748,-3.959 2.718,-3.986 1.817,-0.025 3.203,1.02 4.771,3.598 0.82,1.348 0.969,1.846 1.069,3.58 0.123,2.114 -0.012,2.439 -1.135,2.732 -0.291,0.076 -0.903,0.031 -1.36,-0.1 z m 0.803,-1.715 c 0.69,-1.8 -0.844,-5.281 -2.93,-6.648 -0.659,-0.432 -0.7,-0.425 -1.198,0.189 l -0.515,0.637 0.748,0.529 c 1.794,1.27 2.732,2.445 2.732,3.418 0,0.623 -0.157,1.034 -0.463,1.207 -0.434,0.246 -0.429,0.288 0.066,0.666 0.69,0.526 1.358,0.527 1.56,0.002 z m -2.438,-2.395 c -0.098,-0.303 -1.132,-1.217 -1.291,-1.058 -0.184,0.184 0.354,1.29 0.567,1.492 0.283,0.267 0.899,0.106 0.724,-0.434 z m 4.845,-12.104 c -0.69,0.016 -1.252,-0.869 -0.937,-1.825 0.255,-0.772 2.321,-8.458 2.55,-11.413 0.141,-1.816 2.297,-2.254 2.906,-2.254 1.073,0 -0.387,0.478 -0.531,1.386 -0.073,0.465 -1.396,8.333 -1.609,10.046 -0.497,3.994 -2.379,4.06 -2.379,4.06 z"
         style="fill:#ff6600;fill-rule:nonzero;stroke-width:3.79526"
         id="path4" />
    </g>
  </g>
</svg>
