<?xml version="1.0" encoding="UTF-8"?>
<svg xmlns="http://www.w3.org/2000/svg" xmlns:xlink="http://www.w3.org/1999/xlink" width="50px" height="50px" viewBox="0 0 50 50" version="1.1">
<path d="M17.08 9.41l0 20.16c-1.06-0.48-2.28-0.77-3.58-0.77c-4.14 0-7.47 2.67-7.47 5.98c0 3.3 3.33 5.97 7.47 5.97c4.14 0 7.47-2.67 7.47-5.97l0-16.59l19.52 0l0 11.38c-1.05-0.48-2.27-0.77-3.56-0.77c-4.14 0-7.48 2.67-7.48 5.98c0 3.3 3.34 5.97 7.48 5.97c4.14 0 7.47-2.67 7.47-5.97l0-25.38l-27.31 0l0 0ZM40.48 16.23l-19.52 0l0-2.92l19.52 0l0 2.92l0 0Z" fill="rgb(255,78,0)"/>
</svg>