<?xml version="1.0" encoding="UTF-8"?>
<svg xmlns="http://www.w3.org/2000/svg" xmlns:xlink="http://www.w3.org/1999/xlink" width="50px" height="50px" viewBox="0 0 50 50" version="1.1">
<path d="M46.67 20.17q0-9.09-6.3-15.39q-6.28-6.3-15.39-6.3q-9.19 0-15.44 6.25q-6.25 6.27-6.25 15.44q0 6.03 3.05 11.16q3.05 5.14 8.38 8q0.7 0.38 1.55 0.38q1.31 0 2.19-0.97q0.89-0.95 0.89-2.27q0-1.7-1.69-2.62q-3.78-2.09-5.98-5.77q-2.2-3.66-2.2-7.91q0-6.55 4.47-11.03q4.48-4.47 11.05-4.47q6.56 0 11.03 4.47q4.48 4.48 4.48 11.03q0 4.25-2.2 7.91q-2.2 3.67-5.98 5.77q-1.69 0.92-1.69 2.62q0 1.31 0.88 2.27q0.89 0.97 2.2 0.97q0.86 0 1.55-0.38q5.33-2.86 8.38-8q3.05-5.12 3.05-11.16ZM19.2 8.59l1.84 13.36q-1.31-0.77-3.02-0.77q-1.69 0-3.08 0.92q-1.62 1-1.62 2.62q0 1.62 1.62 2.62q1.39 0.84 3.08 0.84q1.78 0 3.28-0.92q1.52-0.92 1.52-2.55q0-0.39-0.08-0.84l-2.02-12.89l6.33 1.31l-2.16 30.72q-1.39-0.55-3.02-0.55q-2.23 0-4.08 1.08q-2.09 1.31-2.09 3.41q0 2.23 2.09 3.47q1.77 1.08 4.08 1.08q2.33 0 4.22-1.2q1.89-1.19 1.97-3.34l1.39-37.59l-10.27-0.78Z" fill="rgb(255,107,64)"/>
</svg>