<?xml version="1.0" encoding="UTF-8"?>
<svg xmlns="http://www.w3.org/2000/svg" xmlns:xlink="http://www.w3.org/1999/xlink" width="48px" height="48px" viewBox="0 0 48 48" version="1.1">
<path d="M28.16 34.23q-1.72 0.28-3.22 0.34q-4.41-0.09-7.19-1.84q-1.38-0.88-2.06-1.94q-0.69-1.05-0.75-2.19q0.11-2.52 2.48-4.67q2.38-2.16 6.16-4.14l1.12 3.67q-2.33 0.58-3.78 1.94q-1.44 1.38-1.53 2.97q0.06 1.48 1.48 2.61q1.42 1.14 3.67 1.5q0.39-0.05 0.39-0.14q0-0.22-0.47-0.3q-1.41-0.38-2.12-1.2q-0.72-0.83-0.72-1.53q0-1.08 1.23-1.98q1.25-0.91 2.77-1.17l2.53 8.08ZM26.81 26.05q1.73 0 3.09 0.5q1.38 0.5 2.19 1.36q0.83 0.86 1.02 1.92q0 3.19-3.75 4.16l-2.55-7.94ZM23.44 15.33q-0.64-0.98-0.78-2.52q0.06-1.34 0.62-2.69q0.58-1.33 1.5-2.33q1.17-1.14 2.64-1.14q0.75 0 1.22 0.3q0.47 0.3 0.55 0.84q0.12 0.36 0.12 0.75q0 0.89-0.58 1.92q-0.56 1.05-1.52 2.05q-0.94 1-1.95 1.75q-1.02 0.75-1.83 1.06ZM22.39 15.94q-2.5 1.58-4 2.61q-1.5 1.03-2.91 2.3q-1.39 1.28-2.27 2.72q-0.88 1.44-0.97 3.02q0.03 1.7 1.03 3.27q1 1.58 2.8 2.81q1.8 1.23 4.17 1.92q2.39 0.7 5.06 0.7q1.61 0 3.08-0.25q0.2 0.64 0.66 1.83q0.47 1.2 0.69 1.94q0.23 0.75 0.23 1.48q0 1.11-0.39 1.75q-0.25 0.56-1.06 1.05q-0.81 0.5-1.95 0.78q-1.14 0.3-2.25 0.3q-2.19 0-3.16-0.95l0.39 0q1.5 0 2.48-0.64q0.98-0.62 0.98-1.53q0-0.69-0.52-1.27q-0.52-0.56-1.36-0.89q-0.84-0.33-1.81-0.33q-1.16 0.03-2 0.44q-0.84 0.42-1.33 1.06q-0.48 0.66-0.56 1.38q0.11 1.62 2.12 2.58q2.02 0.95 4.72 0.95q1.91 0 3.52-0.53q1.62-0.53 2.56-1.48q0.95-0.95 0.95-2.17q0-0.78-0.23-1.62q-0.23-0.83-0.73-2.25q-0.5-1.42-0.69-2.17q3.05-0.7 4.56-2.22q1.52-1.5 1.52-3.33q0-1.17-0.59-2.25q-0.58-1.08-1.67-1.92q-1.08-0.84-2.62-1.34q-1.53-0.48-3.38-0.48q-0.42 0-1.5 0.09l-1.34-4.06q1.95-1.14 3.36-2.66q1.42-1.5 2.14-3.19q0.72-1.69 0.72-3.44q0-3.69-2.92-6.28q-0.39-0.33-0.64-0.47q-0.23-0.14-0.55-0.14q-0.44 0-1.5 0.52q-1.19 0.55-2.11 1.62q-0.91 1.08-1.42 2.53q-0.5 1.45-0.55 3.12q0.12 2.59 1.23 5.11Z" fill="rgb(255,255,255)"/>
</svg>