<?xml version="1.0" encoding="UTF-8"?>
<svg xmlns="http://www.w3.org/2000/svg" xmlns:xlink="http://www.w3.org/1999/xlink" width="50px" height="50px" viewBox="0 0 50 50" version="1.1">
<path d="M30.7 37.42q-2.36 0.34-4.42 0.41q-6.02-0.09-9.83-2.22q-1.88-1.06-2.83-2.36q-0.94-1.28-1.02-2.64q0.14-3.06 3.39-5.69q3.25-2.61 8.44-5.02l1.53 4.44q-3.17 0.72-5.16 2.38q-1.98 1.66-2.11 3.59q0.08 1.8 2.02 3.17q1.95 1.39 5.05 1.83q0.52-0.08 0.52-0.19q0-0.27-0.62-0.34q-1.92-0.47-2.92-1.48q-0.98-1-0.98-1.84q0-1.31 1.7-2.42q1.72-1.09 3.77-1.42l3.48 9.81ZM28.86 27.48q2.39 0 4.25 0.59q1.88 0.61 2.98 1.66q1.12 1.06 1.39 2.34q0 3.88-5.14 5.05l-3.48-9.64ZM24.23 14.47q-0.88-1.19-1.06-3.05q0.08-1.62 0.86-3.25q0.78-1.62 2.03-2.83q1.61-1.39 3.64-1.39q1.02 0 1.66 0.34q0.64 0.36 0.77 1.05q0.16 0.42 0.16 0.91q0 1.08-0.78 2.33q-0.78 1.27-2.08 2.47q-1.28 1.22-2.69 2.12q-1.39 0.92-2.5 1.3ZM22.81 15.2q-3.44 1.94-5.48 3.19q-2.05 1.25-3.97 2.78q-1.92 1.55-3.12 3.3q-1.19 1.75-1.31 3.67q0.03 2.05 1.41 3.95q1.38 1.92 3.83 3.42q2.47 1.5 5.73 2.33q3.27 0.84 6.92 0.84q2.2 0 4.2-0.3q0.28 0.78 0.91 2.23q0.64 1.45 0.94 2.34q0.31 0.91 0.31 1.8q0 1.36-0.53 2.12q-0.33 0.69-1.44 1.28q-1.11 0.59-2.69 0.94q-1.56 0.36-3.08 0.36q-2.98 0-4.31-1.14l0.53 0q2.05 0 3.39-0.78q1.34-0.77 1.34-1.86q0-0.84-0.7-1.55q-0.7-0.69-1.86-1.09q-1.16-0.39-2.48-0.39q-1.56 0.05-2.73 0.53q-1.16 0.5-1.83 1.28q-0.66 0.8-0.75 1.67q0.14 1.98 2.91 3.14q2.77 1.16 6.45 1.16q2.62 0 4.83-0.64q2.22-0.64 3.5-1.8q1.3-1.16 1.3-2.64q0-0.95-0.33-1.97q-0.31-1.02-1-2.73q-0.69-1.72-0.94-2.64q4.17-0.86 6.25-2.69q2.08-1.81 2.08-4.05q0-1.42-0.81-2.73q-0.8-1.31-2.28-2.34q-1.48-1.02-3.59-1.61q-2.11-0.59-4.64-0.59q-0.56 0-2.05 0.11l-1.84-4.94q2.67-1.38 4.61-3.2q1.94-1.83 2.92-3.89q0.98-2.05 0.98-4.16q0-4.48-3.98-7.64q-0.55-0.39-0.89-0.56q-0.33-0.17-0.75-0.17q-0.59 0-2.05 0.62q-1.62 0.67-2.89 1.97q-1.25 1.31-1.95 3.06q-0.69 1.77-0.73 3.81q0.17 3.14 1.69 6.19Z" fill="rgb(255,96,0)"/>
</svg>