<?xml version="1.0" encoding="UTF-8"?>
<svg xmlns="http://www.w3.org/2000/svg" xmlns:xlink="http://www.w3.org/1999/xlink" width="48px" height="48px" viewBox="0 0 48 48" version="1.1">
<path d="M16.41 9.03l0 19.34c-1.02-0.47-2.19-0.73-3.44-0.73c-3.97 0-7.17 2.56-7.17 5.73c0 3.17 3.2 5.75 7.17 5.75c3.98 0 7.19-2.58 7.19-5.75l0-15.92l18.73 0l0 10.92c-1.03-0.47-2.19-0.73-3.44-0.73c-3.97 0-7.17 2.56-7.17 5.73c0 3.17 3.2 5.75 7.17 5.75c3.97 0 7.17-2.58 7.17-5.75l0-24.34l-26.22 0l0 0ZM38.89 15.58l-18.73 0l0-2.81l18.73 0l0 2.81l0 0Z" fill="rgb(255,255,255)"/>
</svg>